<svg width="163" height="129" viewBox="0 0 163 129" fill="none" xmlns="http://www.w3.org/2000/svg">
<path d="M162.082 114.01H0V114.091H162.082V114.01Z" fill="#EBEBEB"/>
<path d="M145.841 119.226H135.105V119.307H145.841V119.226Z" fill="#EBEBEB"/>
<path d="M88.5681 118.211H84.3896V118.292H88.5681V118.211Z" fill="#EBEBEB"/>
<path d="M113.351 118.555H104.553V118.636H113.351V118.555Z" fill="#EBEBEB"/>
<path d="M134.781 116.217H116.592V116.298H134.781V116.217Z" fill="#EBEBEB"/>
<path d="M25.6059 119.968H17.0059V120.049H25.6059V119.968Z" fill="#EBEBEB"/>
<path d="M35.9465 119.968H28.4907V120.049H35.9465V119.968Z" fill="#EBEBEB"/>
<path d="M62.1777 118.172H42.4653V118.253H62.1777V118.172Z" fill="#EBEBEB"/>
<path d="M76.8273 99.5521H14.2345C13.7441 99.5513 13.2741 99.3559 12.9277 99.0089C12.5813 98.6618 12.3867 98.1915 12.3867 97.7012V9.71331C12.391 9.22577 12.5874 8.75961 12.9334 8.41607C13.2794 8.07254 13.7469 7.87938 14.2345 7.87854H76.8273C77.3182 7.87854 77.789 8.07355 78.1361 8.42068C78.4833 8.7678 78.6783 9.23861 78.6783 9.72952V97.7012C78.6783 98.1921 78.4833 98.6629 78.1361 99.01C77.789 99.3571 77.3182 99.5521 76.8273 99.5521ZM14.2345 7.94337C13.7656 7.94423 13.3162 8.13108 12.985 8.46292C12.6538 8.79475 12.4678 9.24445 12.4678 9.71331V97.7012C12.4678 98.17 12.6538 98.6197 12.985 98.9515C13.3162 99.2834 13.7656 99.4702 14.2345 99.4711H76.8273C77.2964 99.4702 77.7461 99.2835 78.0779 98.9517C78.4096 98.62 78.5964 98.1703 78.5972 97.7012V9.71331C78.5964 9.24416 78.4096 8.79446 78.0779 8.46272C77.7461 8.13098 77.2964 7.94423 76.8273 7.94337H14.2345Z" fill="#EBEBEB"/>
<path d="M146.947 99.5521H84.3505C83.8598 99.5513 83.3895 99.356 83.0426 99.0091C82.6957 98.6621 82.5004 98.1918 82.4995 97.7012V9.71331C82.5046 9.22548 82.7018 8.75932 83.0483 8.41587C83.3948 8.07243 83.8626 7.87937 84.3505 7.87854H146.947C147.434 7.88023 147.9 8.07377 148.246 8.41721C148.591 8.76066 148.787 9.22633 148.791 9.71331V97.7012C148.791 98.1909 148.597 98.6608 148.251 99.0077C147.905 99.3546 147.436 99.5504 146.947 99.5521ZM84.3505 7.94337C83.8813 7.94423 83.4316 8.13098 83.0999 8.46272C82.7682 8.79446 82.5814 9.24416 82.5806 9.71331V97.7012C82.5814 98.1703 82.7682 98.62 83.0999 98.9517C83.4316 99.2835 83.8813 99.4702 84.3505 99.4711H146.947C147.416 99.4702 147.865 99.2835 148.197 98.9517C148.529 98.62 148.716 98.1703 148.716 97.7012V9.71331C148.716 9.24416 148.529 8.79446 148.197 8.46272C147.865 8.13098 147.416 7.94423 146.947 7.94337H84.3505Z" fill="#EBEBEB"/>
<path d="M98.1829 77.8979C98.3839 77.8979 98.5881 77.9044 98.7956 77.9174C100.082 78.0098 101.333 78.3856 102.458 79.0178C103.582 79.65 104.553 80.5231 105.301 81.5744C106.049 82.6258 106.555 83.8294 106.783 85.0992C107.011 86.369 106.956 87.6736 106.621 88.9195C105.666 92.6366 105.205 96.4634 105.25 100.301V111.478C105.25 111.671 105.213 111.862 105.139 112.04C105.066 112.218 104.958 112.38 104.822 112.516C104.686 112.653 104.524 112.761 104.346 112.835C104.168 112.909 103.977 112.947 103.784 112.947H68.3047V77.8979H98.1829Z" fill="#F0F0F0"/>
<path d="M59.5683 86.6504C59.5556 85.3968 59.8122 84.1551 60.321 83.0093C60.8298 81.8635 61.5788 80.8403 62.5173 80.0091C63.4559 79.1779 64.562 78.558 65.7609 78.1914C66.9598 77.8248 68.2234 77.72 69.4663 77.8842C70.7092 78.0483 71.9024 78.4776 72.965 79.1429C74.0276 79.8082 74.9348 80.694 75.6254 81.7404C76.3159 82.7867 76.7736 83.9693 76.9675 85.2079C77.1613 86.4465 77.0868 87.7123 76.749 88.9196C75.7966 92.6371 75.3367 96.4637 75.381 100.301V111.478C75.381 111.868 75.2263 112.241 74.9509 112.517C74.6756 112.792 74.302 112.947 73.9126 112.947H62.703C62.5103 112.947 62.3195 112.909 62.1415 112.835C61.9635 112.761 61.8019 112.653 61.6658 112.516C61.5297 112.38 61.4218 112.218 61.3484 112.04C61.2749 111.862 61.2373 111.671 61.2378 111.478V99.6462C61.2702 96.0463 60.8144 92.4586 59.8828 88.9812C59.6744 88.2218 59.5687 87.4379 59.5683 86.6504Z" fill="#F5F5F5"/>
<path d="M80.3441 112.947H112.19V91.6718H80.3441V112.947Z" fill="#F0F0F0"/>
<path d="M115.056 64.7499H144.451C148.104 64.7499 150.688 67.7127 150.224 71.3628L146.889 96.4823H104.268L107.603 71.3628C108.067 67.7127 111.402 64.7499 115.056 64.7499Z" fill="#E0E0E0"/>
<path d="M103.775 64.7499H133.808C137.287 64.7499 139.747 67.5701 139.319 71.0451L135.941 96.4823H93.3042L96.682 71.0451C97.1229 67.5701 100.3 64.7499 103.775 64.7499Z" fill="#F5F5F5"/>
<path d="M110.096 98.3916H80.7426C80.4906 98.3916 80.241 98.342 80.0082 98.2455C79.7754 98.1491 79.5638 98.0077 79.3856 97.8295C79.2074 97.6513 79.0661 97.4398 78.9696 97.2069C78.8732 96.9741 78.8236 96.7246 78.8236 96.4725V91.649C78.8236 91.14 79.0257 90.6519 79.3856 90.292C79.7455 89.9321 80.2336 89.7299 80.7426 89.7299H110.096C110.248 89.7299 110.394 89.7904 110.501 89.898C110.609 90.0056 110.669 90.1515 110.669 90.3037V97.8178C110.669 97.97 110.609 98.1159 110.501 98.2235C110.394 98.3311 110.248 98.3916 110.096 98.3916Z" fill="#E0E0E0"/>
<path d="M141.66 77.8979C141.863 77.8979 142.067 77.9044 142.272 77.9174C143.558 78.0112 144.808 78.3879 145.931 79.0207C147.055 79.6535 148.024 80.5267 148.771 81.5779C149.518 82.6291 150.023 83.8323 150.251 85.1014C150.478 86.3706 150.423 87.6744 150.088 88.9195C149.135 92.6371 148.676 96.4636 148.72 100.301V111.478C148.72 111.868 148.565 112.241 148.29 112.516C148.014 112.792 147.641 112.947 147.251 112.947H111.775V77.8979H141.66Z" fill="#F0F0F0"/>
<path d="M103.036 86.6504C103.023 85.3968 103.28 84.1551 103.788 83.0093C104.297 81.8635 105.046 80.8403 105.985 80.0091C106.923 79.1779 108.029 78.558 109.228 78.1914C110.427 77.8248 111.691 77.72 112.934 77.8842C114.177 78.0483 115.37 78.4776 116.432 79.1429C117.495 79.8082 118.402 80.694 119.093 81.7404C119.783 82.7867 120.241 83.9693 120.435 85.2079C120.629 86.4465 120.554 87.7123 120.216 88.9196C119.261 92.6367 118.8 96.4634 118.845 100.301V111.478C118.846 111.671 118.808 111.862 118.734 112.04C118.661 112.218 118.553 112.38 118.417 112.516C118.281 112.653 118.119 112.761 117.941 112.835C117.763 112.909 117.573 112.947 117.38 112.947H106.174C105.784 112.947 105.411 112.792 105.135 112.517C104.86 112.241 104.705 111.868 104.705 111.478V99.6462C104.737 96.0465 104.282 92.4591 103.353 88.9812C103.142 88.2223 103.035 87.4382 103.036 86.6504Z" fill="#F5F5F5"/>
<path d="M68.9304 114.01H141.028C141.31 114.01 141.58 113.898 141.78 113.698C141.979 113.499 142.091 113.229 142.091 112.947H67.8574C67.8574 113.087 67.8852 113.226 67.9393 113.356C67.9933 113.485 68.0725 113.603 68.1723 113.702C68.272 113.801 68.3904 113.879 68.5205 113.932C68.6506 113.985 68.79 114.011 68.9304 114.01Z" fill="#E0E0E0"/>
<path d="M28.4264 57.816L130.036 57.816V16.0183L28.4264 16.0183V57.816Z" fill="#E6E6E6"/>
<path d="M27.1394 57.816L129.433 57.816V16.0183L27.1394 16.0183V57.816Z" fill="#F5F5F5"/>
<path d="M28.4264 59.4012L130.036 59.4012V57.8193L28.4264 57.8193V59.4012Z" fill="#E6E6E6"/>
<path d="M25.9916 59.4012L125.478 59.4012V57.8193L25.9916 57.8193V59.4012Z" fill="#F5F5F5"/>
<path d="M127.64 55.4237V18.4171L28.9382 18.4171V55.4237L127.64 55.4237Z" fill="#FAFAFA"/>
<path d="M29.1909 55.4205L29.1909 18.4139H28.9348L28.9348 55.4205H29.1909Z" fill="#E6E6E6"/>
<path d="M121.263 55.4205L114.618 18.4139H105.908L112.553 55.4205H121.263Z" fill="white"/>
<path d="M85.8581 55.4205L79.2127 18.4139H75.2773L81.9227 55.4205H85.8581Z" fill="white"/>
<path d="M126.353 53.5792V14.686C126.353 14.5768 126.264 14.4883 126.155 14.4883H126.139C126.029 14.4883 125.941 14.5768 125.941 14.686V53.5792C125.941 53.6884 126.029 53.777 126.139 53.777H126.155C126.264 53.777 126.353 53.6884 126.353 53.5792Z" fill="#EBEBEB"/>
<path opacity="0.5" d="M26.1958 42.2496L130.729 42.2496V14.4915L26.1958 14.4915V42.2496Z" fill="#E6E6E6"/>
<path d="M26.1958 15.2274L130.729 15.2274V14.4916L26.1958 14.4916V15.2274Z" fill="#E0E0E0"/>
<path d="M26.2706 14.8125L130.658 14.8125C130.814 14.8125 130.94 14.6862 130.94 14.5305V14.4494C130.94 14.2937 130.814 14.1674 130.658 14.1674L26.2706 14.1674C26.1149 14.1674 25.9886 14.2937 25.9886 14.4494V14.5305C25.9886 14.6862 26.1149 14.8125 26.2706 14.8125Z" fill="#EBEBEB"/>
<path d="M26.1439 42.4021H130.787C130.828 42.4012 130.867 42.3845 130.895 42.3554C130.924 42.3263 130.94 42.2872 130.94 42.2465C130.94 42.2061 130.924 42.1673 130.895 42.1387C130.866 42.1102 130.828 42.0941 130.787 42.0941H26.1439C26.1032 42.0941 26.0641 42.1101 26.035 42.1385C26.0059 42.167 25.9891 42.2058 25.9883 42.2465C25.9891 42.2875 26.0058 42.3266 26.0348 42.3556C26.0638 42.3846 26.1029 42.4012 26.1439 42.4021Z" fill="white"/>
<path d="M33.0647 81.5318C29.5184 76.517 21.0706 74.6563 18.1532 71.4827C14.3248 67.3302 14.3475 61.1095 17.6053 58.8598C20.4385 56.9148 29.8198 70.1083 30.8766 71.5832C34.5105 76.6532 35.5673 80.4199 36.248 84.0668C36.1702 80.9645 36.0956 78.1184 36.0341 75.9238C35.8363 68.7598 35.5867 66.455 35.4733 65.7483C35.0843 65.4014 34.6207 64.9962 34.3516 64.7758C32.0825 62.9443 27.0612 61.5341 24.5457 58.8728C20.8697 54.9828 21.5925 48.8626 23.5732 47.7442C26.3999 46.1493 32.1895 49.9647 34.0145 54.5517C35.4052 58.0461 35.9076 61.7902 36.1734 66.3642C36.2156 67.0676 36.4749 69.6772 36.6176 73.311C37.3858 69.3984 38.9126 66.7791 41.7458 64.3349C45.2306 61.3299 48.2291 57.6734 51.1109 58.1434C53.9927 58.6134 52.4368 63.4597 50.1644 66.8569C48.1416 69.8846 38.1703 72.9026 36.6921 75.3371C36.8672 80.2643 37.0163 86.511 37.1297 92.3233C37.9174 89.3215 37.3761 89.0816 40.6015 84.472C42.5173 81.736 50.3751 78.368 51.2989 80.2579C52.2228 82.1477 50.8095 85.6844 47.8434 88.1707C45.451 90.1773 40.1412 90.174 38.9126 91.4124C38.6274 91.7041 37.6808 92.816 37.1395 93.4546C37.2659 100.554 37.3242 106.82 37.2594 108.956L36.744 108.979C36.7699 108.428 36.7083 104.817 36.6078 100.038C35.3112 97.4937 26.6365 96.009 23.9654 93.3671C21.1614 90.5987 19.1451 87.37 20.3478 85.2078C21.3527 83.4055 29.259 85.8562 32.4715 88.845C34.6077 90.8321 35.9141 92.9586 36.5235 95.8113C36.449 92.5534 36.3679 89.0589 36.2869 85.7622C35.6256 84.9323 34.1409 83.0359 33.0647 81.5318Z" fill="#E6E6E6"/>
<path d="M44.7121 114.01H28.0533C27.6411 114.032 27.2334 113.916 26.8938 113.682C26.5542 113.447 26.3019 113.106 26.1764 112.713L24.9932 107.721H47.7689L46.5857 112.707C46.462 113.101 46.2108 113.443 45.8717 113.679C45.5325 113.915 45.1246 114.031 44.7121 114.01Z" fill="#F0F0F0"/>
<path d="M48.2454 109.643H24.5166C24.261 109.659 24.0084 109.582 23.8048 109.427C23.6013 109.271 23.4604 109.048 23.4079 108.797L22.9217 105.128C22.8471 104.561 23.3658 104.065 24.0336 104.065H48.7316C49.38 104.065 49.9148 104.561 49.8403 105.128L49.354 108.814C49.2982 109.061 49.1559 109.281 48.9527 109.433C48.7495 109.585 48.4987 109.66 48.2454 109.643Z" fill="#F0F0F0"/>
<path d="M81.0411 128.649C115.753 128.649 143.893 127.006 143.893 124.98C143.893 122.953 115.753 121.31 81.0411 121.31C46.3288 121.31 18.189 122.953 18.189 124.98C18.189 127.006 46.3288 128.649 81.0411 128.649Z" fill="#F5F5F5"/>
<path d="M69.9354 34.1099C70.0358 33.9997 71.0667 32.9462 70.6842 32.3076C70.36 32.9786 69.7376 33.9965 67.8315 34.165C68.0439 33.5867 68.1536 32.9756 68.1557 32.3595C67.8458 33.0619 67.3776 33.6832 66.7877 34.1748C65.6059 34.0866 64.4391 33.8559 63.3127 33.4875C58.5086 33.9284 58.3919 30.1454 58.353 29.3026C58.2285 29.8665 58.173 30.4434 58.1876 31.0207C57.1503 29.3739 57.3156 26.8746 58.6836 26.4078C58.9332 21.0915 62.7746 20.6182 63.7406 20.4075C65.4846 20.025 68.5285 18.563 70.0358 21.7042C72.1526 22.842 72.9533 25.5164 72.0489 29.5943C73.8642 32.5151 70.1266 34.0354 69.9354 34.1099Z" fill="#263238"/>
<path d="M63.0144 124.976C65.5235 124.976 65.8541 124.937 67.2642 124.889C68.4701 124.847 68.7586 124.996 69.7311 124.976C70.5415 124.957 70.5091 124.182 70.2595 123.291C70.1363 122.843 69.9353 121.894 69.77 121.171L65.9578 121.569C65.6575 122.106 65.2311 122.561 64.7154 122.895C64.1997 123.229 63.6103 123.433 62.9982 123.488C61.6465 123.67 62.016 124.976 63.0144 124.976Z" fill="#263238"/>
<path d="M60.9594 115.897C62.4441 113.929 62.8201 113.174 63.6208 112.039C64.3048 111.067 64.4377 111.31 65.1671 110.35C65.6468 109.702 65.2027 108.814 64.5188 108.616C63.8773 108.487 63.249 108.299 62.6418 108.055L60.1393 109.9C60.5964 111.083 60.6482 113.79 59.6206 115.362C58.8783 116.49 60.3597 116.684 60.9594 115.897Z" fill="#263238"/>
<path d="M51.5131 55.7479C51.5131 55.7479 44.3037 76.3583 43.3701 83.9016C42.4592 91.2795 60.3271 110.464 60.3271 110.464C60.7583 110.788 62.5477 108.564 62.6481 107.98C62.6481 107.98 55.5554 92.3558 50.6152 84.1382C61.3126 68.2898 63.17 57.5957 63.17 57.5957L51.5131 55.7479Z" fill="#407BFF"/>
<path d="M55.0073 56.3022C55.0073 56.3022 59.0367 77.0487 60.5732 87.046C62.194 97.5359 66.3628 114.71 65.9576 121.569C66.5443 121.913 68.7033 121.333 69.8476 120.97C69.8476 120.97 72.8137 98.4695 67.6983 88.0833C71.0081 63.8099 64.8749 57.868 64.8749 57.868L55.0073 56.3022Z" fill="#407BFF"/>
<path d="M65.6692 118.571C65.6692 119.187 65.6271 120.26 65.5363 121.08C65.5039 121.375 65.6173 121.65 65.7827 121.699C67.1766 122.095 69.1961 121.518 69.838 121.313C69.9611 121.274 70.0519 121.103 70.0714 120.882L70.2788 118.535C70.308 118.211 70.1686 117.923 69.9838 117.929L65.9577 118.068C65.8054 118.075 65.6757 118.292 65.6692 118.571Z" fill="#263238"/>
<path d="M58.1258 108.259C58.5148 108.788 59.2021 109.728 59.698 110.438C59.8634 110.671 60.1065 110.794 60.2556 110.726C61.374 110.207 62.7063 108.781 63.1374 108.321C63.2217 108.227 63.2022 108.035 63.0888 107.847L61.8635 105.821C61.6981 105.546 61.3999 105.384 61.2475 105.497L58.061 107.702C57.9313 107.786 57.9573 108.045 58.1258 108.259Z" fill="#263238"/>
<path d="M56.0966 40.3339C55.9832 40.1686 55.9184 40.0648 55.8373 39.9352L55.6136 39.5656C55.471 39.3225 55.3381 39.0761 55.2084 38.8298C54.9491 38.337 54.7071 37.8389 54.4823 37.3354C54.0329 36.3236 53.6549 35.2815 53.351 34.2169C53.0407 33.1475 52.811 32.0563 52.6638 30.9526C52.5827 30.3983 52.5373 29.8407 52.5049 29.2799C52.5049 28.9979 52.479 28.7191 52.4822 28.4371V28.0157C52.4822 27.8341 52.4822 27.6364 52.5114 27.4711C52.5744 26.8608 52.6927 26.2576 52.8647 25.6687C53.0171 25.1176 53.1889 24.599 53.3769 24.09C53.7497 23.0722 54.1711 22.1029 54.612 21.1499C55.4998 19.2561 56.4977 17.4161 57.6008 15.6391C57.7346 15.4276 57.9415 15.2727 58.1821 15.2037C58.4226 15.1348 58.6802 15.1565 58.9057 15.2649C59.1313 15.3733 59.3092 15.5608 59.4057 15.7917C59.5022 16.0226 59.5105 16.2809 59.4291 16.5176V16.537C58.7515 18.4366 58.0838 20.3621 57.4679 22.2585C57.1631 23.2115 56.8746 24.1613 56.638 25.0949C56.5181 25.5585 56.4078 26.022 56.3138 26.4694C56.2362 26.8715 56.1896 27.279 56.1744 27.6883C56.1744 27.7758 56.1744 27.8341 56.1744 27.9087L56.2036 28.2555C56.2198 28.4825 56.2522 28.7126 56.2749 28.9428C56.343 29.3998 56.4078 29.8569 56.5019 30.3107C56.6846 31.2248 56.9239 32.1266 57.2183 33.011C57.5137 33.9018 57.8568 34.7762 58.2458 35.6303C58.4371 36.0614 58.6413 36.4828 58.8553 36.8945L59.1794 37.5007L59.3448 37.7957L59.4939 38.0453L59.549 38.1361C59.8087 38.5951 59.8817 39.1365 59.7528 39.648C59.6238 40.1594 59.3029 40.6015 58.8567 40.8827C58.4104 41.1638 57.873 41.2622 57.3561 41.1576C56.8391 41.053 56.3823 40.7534 56.0804 40.3209L56.0966 40.3339Z" fill="#B55B52"/>
<path d="M61.2313 14.7411C61.1863 15.2161 60.9683 15.6579 60.6187 15.9826L59.0141 17.3668C58.9047 17.4634 58.7682 17.5239 58.6232 17.5402C58.4782 17.5564 58.3317 17.5276 58.2036 17.4576L57.3252 17.0037C57.2793 15.7488 57.5596 14.5035 58.1388 13.3893L58.5343 11.8625C58.5413 11.8058 58.5616 11.7516 58.5935 11.7042C58.6254 11.6568 58.6681 11.6176 58.718 11.5898C58.7679 11.562 58.8236 11.5464 58.8807 11.5442C58.9378 11.542 58.9946 11.5533 59.0465 11.5772L61.1438 12.6697C61.2442 12.7325 61.3239 12.8235 61.3729 12.9313C61.4219 13.0391 61.438 13.1589 61.4194 13.2758L61.2313 14.7411Z" fill="#B55B52"/>
<path d="M57.2185 42.8494C62.5284 41.0503 59.9966 37.1733 58.5606 33.52C57.1667 32.4632 53.0498 36.8102 53.0498 36.8102C53.0498 36.8102 52.0027 42.4474 57.2185 42.8494Z" fill="#263238"/>
<path d="M53.2475 39.8833C52.8495 41.9114 52.5552 43.9585 52.3657 46.0165C52.0416 48.6909 51.8179 51.3328 51.5132 55.7414L64.8882 57.8615C65.2124 54.0493 66.334 49.8254 70.0748 41.7278C70.2862 41.3069 70.4009 40.8441 70.4104 40.3732C70.4199 39.9023 70.3241 39.4352 70.1299 39.0061C69.9357 38.577 69.648 38.1967 69.288 37.893C68.9279 37.5894 68.5045 37.3701 68.0488 37.2511C67.5269 37.115 66.9726 36.9821 66.3988 36.8621C64.4006 36.3943 62.3716 36.0693 60.3272 35.8896C59.6562 35.8475 58.9592 35.8215 58.2915 35.8086C57.1086 35.7973 55.9585 36.1976 55.0383 36.9409C54.1182 37.6843 53.485 38.7245 53.2475 39.8833Z" fill="#263238"/>
<path d="M67.0597 29.9639C66.2201 31.8343 65.0045 35.3093 66.0677 36.8167C66.0677 36.8167 64.2622 36.2429 59.9475 38.0518C59.0658 36.2397 59.9962 35.8539 59.9962 35.8539C62.2945 35.6854 62.6154 34.0775 62.5895 32.5183L67.0597 29.9639Z" fill="#B55B52"/>
<path d="M60.8491 37.7017C62.1166 38.0907 62.2106 40.1102 62.2106 40.1102C62.2106 40.1102 65.6694 38.4019 66.898 37.008C66.5423 36.7254 66.2015 36.4246 65.8769 36.1068C65.8769 36.1068 61.7244 37.0534 60.8491 37.7017Z" fill="white"/>
<path d="M59.6462 37.29C59.6462 37.29 58.4792 37.4165 57.8276 38.9109C57.9832 36.0128 59.3901 35.7405 59.3901 35.7405C59.775 35.5922 60.2014 35.5922 60.5863 35.7405C60.2717 35.8461 60.0047 36.0596 59.8326 36.3432C59.6605 36.6269 59.5945 36.9623 59.6462 37.29Z" fill="white"/>
<path opacity="0.2" d="M65.2351 31.0045L62.5899 32.5151C62.6022 32.8815 62.5816 33.2482 62.5283 33.6108C63.3874 33.6108 64.7456 32.9009 65.0374 32.0548C65.1667 31.7197 65.2338 31.3637 65.2351 31.0045Z" fill="black"/>
<path d="M69.3486 26.3041C68.2562 29.3674 67.8575 30.6803 65.8185 31.9089C62.7487 33.7566 59.2185 31.964 59.3741 28.6899C59.5103 25.7465 61.2737 21.2342 64.6904 20.7058C68.0747 20.1968 70.4411 23.244 69.3486 26.3041Z" fill="#B55B52"/>
<path d="M68.4993 22.0089C66.846 23.0008 66.9012 28.3366 69.6501 27.9476C72.198 24.8615 70.2725 21.0656 68.4993 22.0089Z" fill="#263238"/>
<path d="M70.039 21.675C68.1297 24.6735 60.9138 22.0769 59.2119 20.6474C60.4373 21.0137 62.5022 20.6927 63.9933 20.3232C65.4845 19.9536 69.6176 18.0087 70.039 21.675Z" fill="#263238"/>
<path d="M60.437 20.0607C62.4937 20.5816 64.6542 20.5243 66.6804 19.8954L68.862 19.7171C67.2704 18.6668 62.9525 20.0186 60.437 20.0607Z" fill="#263238"/>
<path d="M65.2349 26.1938C65.1538 26.4532 64.9528 26.6315 64.7843 26.5926C64.6157 26.5537 64.5412 26.3105 64.6222 26.048C64.7032 25.7854 64.9075 25.6071 65.076 25.6492C65.2446 25.6914 65.3159 25.9313 65.2349 26.1938Z" fill="#263238"/>
<path d="M61.9703 25.3186C61.8893 25.5812 61.6851 25.7595 61.5165 25.7206C61.3479 25.6817 61.2766 25.4353 61.3577 25.176C61.4387 24.9167 61.6397 24.7352 61.8083 24.774C61.9768 24.8129 62.0481 25.0593 61.9703 25.3186Z" fill="#263238"/>
<path d="M61.8795 24.8065L61.3154 24.4823C61.3154 24.4823 61.4808 25.0593 61.8795 24.8065Z" fill="#263238"/>
<path d="M62.7974 26.129C62.3811 26.6701 61.8986 27.1569 61.3613 27.578C61.5915 27.9768 62.2398 27.9768 62.2398 27.9768L62.7974 26.129Z" fill="#A02724"/>
<path d="M63.4163 29.2734C63.2667 29.2662 63.1181 29.2456 62.9722 29.2119C62.9621 29.2093 62.9527 29.2047 62.9446 29.1983C62.9364 29.1919 62.9297 29.1838 62.9248 29.1747C62.9199 29.1655 62.917 29.1555 62.9162 29.1451C62.9155 29.1348 62.9169 29.1244 62.9203 29.1146C62.9264 29.0945 62.9397 29.0774 62.9577 29.0666C62.9757 29.0558 62.997 29.0521 63.0176 29.0563C63.3481 29.1352 63.6921 29.1389 64.0243 29.0671C64.3565 28.9953 64.6682 28.8498 64.9366 28.6413C64.9518 28.6265 64.9721 28.6182 64.9934 28.6182C65.0146 28.6182 65.0349 28.6265 65.0501 28.6413C65.0573 28.6486 65.0631 28.6571 65.067 28.6666C65.0709 28.6761 65.073 28.6862 65.073 28.6964C65.073 28.7067 65.0709 28.7168 65.067 28.7263C65.0631 28.7357 65.0573 28.7443 65.0501 28.7515C64.5883 29.1206 64.0066 29.3065 63.4163 29.2734Z" fill="#263238"/>
<path d="M69.5785 29.2734C69.364 29.5399 69.0989 29.7612 68.7985 29.9248C68.498 30.0884 68.1682 30.1909 67.828 30.2264C66.9463 30.301 66.7258 29.4096 67.1505 28.6056C67.5362 27.886 68.4472 26.9848 69.2511 27.2766C70.055 27.5683 70.1296 28.5829 69.5785 29.2734Z" fill="#B55B52"/>
<path d="M66.4864 24.278C66.4659 24.2753 66.4462 24.2681 66.4288 24.2569C66.4115 24.2457 66.3968 24.2308 66.3859 24.2132C66.2835 24.0467 66.1407 23.9088 65.9706 23.8124C65.8005 23.7161 65.6089 23.6644 65.4134 23.6621C65.3931 23.6625 65.373 23.6589 65.3541 23.6514C65.3353 23.644 65.3181 23.6328 65.3036 23.6186C65.2891 23.6044 65.2776 23.5875 65.2697 23.5688C65.2619 23.5501 65.2578 23.53 65.2578 23.5097C65.2602 23.467 65.2785 23.4267 65.3091 23.3967C65.3397 23.3667 65.3803 23.3492 65.4231 23.3477C65.668 23.3491 65.9086 23.4126 66.1223 23.5322C66.336 23.6518 66.5159 23.8236 66.6452 24.0316C66.666 24.0685 66.6718 24.1118 66.6616 24.1528C66.6513 24.1938 66.6257 24.2293 66.5901 24.2521C66.5593 24.2717 66.5229 24.2808 66.4864 24.278Z" fill="#263238"/>
<path d="M61.3124 23.6005C61.2929 23.6006 61.2736 23.5967 61.2557 23.5888C61.2378 23.581 61.2218 23.5695 61.2086 23.5551C61.1791 23.5254 61.1626 23.4852 61.1626 23.4433C61.1626 23.4014 61.1791 23.3612 61.2086 23.3315C61.3897 23.1496 61.6102 23.0118 61.853 22.9286C62.0958 22.8454 62.3545 22.8191 62.609 22.8517C62.6288 22.8558 62.6476 22.864 62.6641 22.8757C62.6806 22.8874 62.6944 22.9025 62.7048 22.9198C62.7152 22.9372 62.7218 22.9566 62.7243 22.9766C62.7268 22.9967 62.7251 23.0171 62.7192 23.0365C62.7078 23.0774 62.6816 23.1127 62.6457 23.1355C62.6098 23.1582 62.5667 23.1668 62.5247 23.1597C62.3228 23.1366 62.1182 23.16 61.9267 23.2279C61.7351 23.2959 61.5616 23.4067 61.4193 23.5519C61.3902 23.5797 61.3525 23.5969 61.3124 23.6005Z" fill="#263238"/>
<path d="M65.1568 25.6817L64.5928 25.3575C64.5928 25.3575 64.7484 25.9183 65.1568 25.6817Z" fill="#263238"/>
<path d="M61.3026 57.1807L61.9704 56.4254C62.0946 56.2849 62.2506 56.176 62.4254 56.1077C62.6001 56.0395 62.7886 56.014 62.9753 56.0332L64.742 56.2212C65.0898 56.2567 65.4239 56.3754 65.7162 56.5672C66.0084 56.759 66.2502 57.0184 66.4211 57.3234L66.6383 57.7059C65.614 59.0382 63.5263 59.7222 63.5263 59.7222L62.9526 59.9847C62.8372 60.0397 62.7122 60.0714 62.5846 60.078C62.4569 60.0847 62.3293 60.0661 62.2089 60.0233C62.0884 59.9806 61.9776 59.9145 61.8827 59.8289C61.7879 59.7433 61.7108 59.6398 61.6559 59.5244L61.1211 58.3963C61.0313 58.1977 61.0008 57.9774 61.033 57.7618C61.0651 57.5462 61.1588 57.3445 61.3026 57.1807Z" fill="#B55B52"/>
<path d="M71.3165 41.4458C71.4267 41.7051 71.511 41.9158 71.6017 42.146C71.6925 42.3761 71.767 42.5998 71.8481 42.8267C72.0069 43.2806 72.1723 43.7344 72.2987 44.1915C72.5742 45.1056 72.8141 46.036 73.0086 46.9793C73.2088 47.9321 73.356 48.8952 73.4495 49.8643C73.5449 50.8598 73.5687 51.8608 73.5208 52.8596V52.9633C73.5157 53.0598 73.5005 53.1554 73.4754 53.2486C73.3082 53.8474 73.0091 54.4012 72.6002 54.8694C72.2795 55.2411 71.9186 55.576 71.5239 55.8679C70.8436 56.3628 70.1096 56.7793 69.3358 57.1094C68.6193 57.4222 67.8829 57.6875 67.1315 57.9036C66.3868 58.1224 65.6289 58.2935 64.8624 58.4158C64.6223 58.4561 64.3758 58.4096 64.1669 58.2846C63.9581 58.1597 63.8005 57.9645 63.7225 57.7339C63.6445 57.5034 63.6511 57.2526 63.7412 57.0265C63.8312 56.8004 63.9989 56.6137 64.214 56.5L64.2594 56.474C64.8591 56.1499 65.501 55.8257 66.1007 55.4756C66.7004 55.1255 67.2936 54.7754 67.8414 54.3994C68.3605 54.0572 68.8466 53.6676 69.2937 53.2356C69.4667 53.0686 69.6191 52.8814 69.7475 52.6781C69.8448 52.5128 69.8707 52.3961 69.8512 52.3831L69.8026 52.7721C69.7623 51.9566 69.6779 51.144 69.5498 50.3376C69.4071 49.5142 69.2256 48.6909 69.0311 47.8642C68.8366 47.0376 68.587 46.2142 68.3309 45.3941C68.2045 44.9857 68.0716 44.5772 67.9289 44.172L67.715 43.5723L67.5108 43.005L67.4816 42.9272C67.2852 42.4187 67.2988 41.8529 67.5194 41.3544C67.7401 40.8559 68.1498 40.4655 68.6583 40.2691C69.1669 40.0726 69.7326 40.0862 70.2311 40.3069C70.7296 40.5276 71.12 40.9373 71.3165 41.4458Z" fill="#B55B52"/>
<path d="M67.8086 37.1959C70.0065 37.5784 70.885 38.8167 72.603 43.274C71.7537 44.911 67.8962 46.4184 67.8962 46.4184C67.8962 46.4184 65.9285 40.1102 67.8086 37.1959Z" fill="#263238"/>
<path d="M116.339 119.229L119.435 118.38L117.743 111.119L114.647 111.968L116.339 119.229Z" fill="#FF8B7B"/>
<path d="M119.011 117.09L115.613 117.962C115.552 117.977 115.499 118.013 115.462 118.064C115.425 118.115 115.408 118.178 115.412 118.24L115.646 121.132C115.652 121.203 115.674 121.273 115.709 121.335C115.745 121.397 115.794 121.451 115.853 121.492C115.911 121.534 115.978 121.562 116.049 121.575C116.12 121.587 116.192 121.585 116.262 121.566C117.481 121.242 119.231 120.704 120.771 120.309C122.573 119.845 122.411 119.962 124.521 119.42C125.799 119.096 125.757 117.725 125.186 117.748C122.593 117.845 122.333 117.881 119.834 117.138C119.569 117.048 119.284 117.031 119.011 117.09Z" fill="#263238"/>
<path opacity="0.2" d="M117.743 111.119L118.615 114.863L115.519 115.712L114.647 111.968L117.743 111.119Z" fill="black"/>
<path d="M119.617 117.235C119.603 117.235 119.589 117.23 119.578 117.221C119.567 117.212 119.559 117.2 119.555 117.187C119.55 117.172 119.549 117.156 119.553 117.141C119.557 117.126 119.566 117.112 119.578 117.103C119.704 116.992 120.826 116.026 121.247 116.13C121.287 116.141 121.323 116.162 121.352 116.192C121.38 116.222 121.4 116.258 121.409 116.299C121.431 116.365 121.436 116.436 121.425 116.505C121.415 116.574 121.388 116.64 121.348 116.697C121.066 117.09 120.148 117.197 119.626 117.223L119.617 117.235ZM121.173 116.286C120.923 116.266 120.297 116.701 119.85 117.067C120.563 117.005 121.069 116.843 121.225 116.623C121.251 116.585 121.269 116.542 121.277 116.496C121.284 116.451 121.28 116.404 121.267 116.36C121.263 116.344 121.255 116.329 121.244 116.317C121.232 116.305 121.218 116.297 121.202 116.292L121.173 116.286Z" fill="#407BFF"/>
<path d="M119.617 117.235C119.605 117.229 119.596 117.22 119.588 117.21C119.581 117.199 119.576 117.187 119.575 117.174C119.575 117.138 119.481 116.266 119.808 115.835C119.9 115.711 120.037 115.628 120.19 115.605C120.398 115.573 120.479 115.66 120.515 115.741C120.644 116.065 120.041 116.957 119.698 117.223C119.689 117.235 119.675 117.243 119.66 117.246C119.645 117.248 119.629 117.244 119.617 117.235ZM120.265 115.748H120.187C120.074 115.766 119.972 115.829 119.905 115.923C119.731 116.253 119.657 116.627 119.694 116.999C120.019 116.675 120.427 116 120.343 115.796C120.353 115.786 120.343 115.754 120.265 115.748Z" fill="#407BFF"/>
<path d="M105.772 82.7963C98.7762 67.4471 93.7614 61.1746 93.6479 52.9019L104.793 50.8629C104.793 50.8629 113.461 71.9044 114.375 81.5321C115.325 91.5423 119.085 112.535 119.085 112.535L114.002 113.508C114.002 113.508 106.021 94.1323 105.772 82.7963Z" fill="#263238"/>
<path opacity="0.2" d="M94.7017 59.2069C95.9821 63.327 98.3582 67.6838 101.441 73.7943C100.896 66.627 98.5851 58.27 94.7017 59.2069Z" fill="black"/>
<path d="M119.536 111.047L119.659 113.3L114.161 114.781L113.432 112.804L119.536 111.047Z" fill="#263238"/>
<path d="M89.4823 114.837L89.2295 122.292L92.7953 122.241L93.0481 114.785L89.4823 114.837Z" fill="#FF8B7B"/>
<path d="M92.7113 121.268L89.2071 121.323C89.1457 121.324 89.0866 121.347 89.0412 121.388C88.9957 121.429 88.9671 121.486 88.9607 121.547L88.656 124.416C88.6501 124.488 88.6594 124.561 88.6832 124.629C88.707 124.698 88.7448 124.76 88.7942 124.813C88.8436 124.867 88.9036 124.909 88.9702 124.937C89.0368 124.966 89.1086 124.98 89.1811 124.98C90.4454 124.938 90.8409 124.834 92.4228 124.811C94.2802 124.782 93.4245 124.857 95.6028 124.811C96.919 124.788 97.1297 123.456 96.5753 123.336C94.7892 122.963 94.3062 122.254 93.5185 121.495C93.2877 121.32 92.9993 121.239 92.7113 121.268Z" fill="#263238"/>
<path opacity="0.2" d="M89.4825 114.837L89.3496 118.681L92.9187 118.629L93.0483 114.788L89.4825 114.837Z" fill="black"/>
<path d="M92.0627 121.511C92.0488 121.512 92.035 121.509 92.0229 121.502C92.0108 121.495 92.001 121.485 91.9947 121.472C91.9854 121.46 91.9805 121.444 91.9805 121.429C91.9805 121.413 91.9854 121.397 91.9947 121.385C92.1049 121.262 93.0741 120.189 93.5182 120.253C93.5598 120.258 93.5993 120.274 93.6328 120.299C93.6664 120.324 93.6928 120.358 93.7095 120.396C93.7416 120.457 93.7583 120.525 93.7583 120.594C93.7583 120.663 93.7416 120.731 93.7095 120.792C93.4923 121.21 92.5846 121.424 92.066 121.511H92.0627ZM93.4761 120.403C93.22 120.403 92.6624 120.911 92.2734 121.32C92.9769 121.174 93.4599 120.957 93.5701 120.723C93.5917 120.683 93.603 120.638 93.603 120.592C93.603 120.546 93.5917 120.501 93.5701 120.461C93.5642 120.445 93.5542 120.432 93.541 120.421C93.5279 120.411 93.5121 120.404 93.4955 120.403H93.4761Z" fill="#407BFF"/>
<path d="M92.0625 121.511C92.0493 121.508 92.0373 121.501 92.0276 121.491C92.0179 121.481 92.0109 121.469 92.0074 121.456C92.0074 121.42 91.7675 120.581 92.0301 120.124C92.0656 120.056 92.1147 119.997 92.1744 119.949C92.2342 119.902 92.3032 119.867 92.377 119.848C92.5812 119.793 92.6752 119.871 92.7173 119.945C92.9021 120.27 92.4353 121.187 92.1338 121.488C92.1258 121.499 92.1146 121.507 92.1018 121.511C92.089 121.515 92.0753 121.515 92.0625 121.511ZM92.4742 119.984C92.4484 119.981 92.4222 119.981 92.3964 119.984C92.3423 119.998 92.2918 120.023 92.2481 120.057C92.2045 120.092 92.1689 120.136 92.1436 120.185C92.0189 120.531 92.0042 120.907 92.1014 121.262C92.3867 120.898 92.6784 120.202 92.565 120.01C92.5715 120.01 92.5553 119.981 92.4872 119.984H92.4742Z" fill="#407BFF"/>
<path d="M89.528 85.3215C88.5166 73.8266 85.7061 62.5619 86.6429 54.0883L98.3128 52.1433C98.3128 52.1433 99.992 75.9013 98.7116 85.6943C97.3825 95.8763 93.9237 116.331 93.9237 116.331L88.737 116.402C88.737 116.402 88.1535 96.57 89.528 85.3215Z" fill="#263238"/>
<path d="M94.6623 115.167L94.3252 117.385L88.5129 117.488L88.1855 115.391L94.6623 115.167Z" fill="#263238"/>
<path d="M96.9768 21.8178C97.9493 22.1161 99.0093 22.4305 100.03 22.7222C101.052 23.014 102.089 23.2895 103.11 23.5489C104.131 23.8082 105.155 24.0286 106.151 24.1972C106.647 24.2847 107.139 24.3463 107.613 24.4014C108.043 24.4508 108.476 24.4703 108.909 24.4598L107.891 24.8293C107.809 24.8919 107.747 24.9777 107.713 25.0757C107.713 25.1211 107.739 25.0757 107.765 24.9817C107.82 24.6359 107.82 24.2836 107.765 23.9379C107.625 22.9667 107.395 22.0106 107.078 21.082C106.754 20.09 106.381 19.0884 105.982 18.0899C105.583 17.0915 105.142 16.0769 104.721 15.1011L104.705 15.0655C104.59 14.7951 104.576 14.4921 104.667 14.2126C104.758 13.9332 104.948 13.6962 105.2 13.5455C105.452 13.3948 105.751 13.3406 106.04 13.393C106.329 13.4454 106.59 13.6008 106.773 13.8304C107.483 14.7383 108.146 15.6818 108.76 16.6571C109.385 17.64 109.957 18.6562 110.472 19.701C110.731 20.2327 110.971 20.7837 111.198 21.3575C111.436 21.9525 111.629 22.5648 111.775 23.189C111.96 23.9302 112.032 24.6955 111.986 25.4582C111.947 25.9781 111.818 26.4872 111.603 26.9623C111.328 27.5626 110.9 28.0802 110.362 28.4632C110.085 28.6589 109.764 28.7836 109.428 28.8263H109.34C108.065 28.9625 106.778 28.9517 105.506 28.7938C104.316 28.6674 103.165 28.4697 102.034 28.2395C100.902 28.0094 99.7938 27.7371 98.6916 27.4388C97.5895 27.1406 96.523 26.8132 95.4046 26.4177C94.8604 26.167 94.4276 25.7247 94.1888 25.1752C93.95 24.6257 93.9219 24.0075 94.11 23.4386C94.298 22.8698 94.6889 22.39 95.2082 22.0911C95.7274 21.7921 96.3385 21.6948 96.9249 21.8178H96.9768Z" fill="#FF8B7B"/>
<path d="M105.285 15.8791L102.715 13.6586L106.076 11.6812C106.076 11.6812 108.423 13.9503 107.205 15.3766L105.285 15.8791Z" fill="#FF8B7B"/>
<path d="M102.196 11.1982L103.681 10.2646C103.863 10.1484 104.08 10.0992 104.295 10.1252C104.509 10.1512 104.708 10.2509 104.857 10.4072L106.076 11.6812L102.715 13.6586L101.927 12.524C101.855 12.42 101.805 12.3026 101.78 12.1789C101.755 12.0552 101.755 11.9277 101.78 11.804C101.805 11.6802 101.855 11.5628 101.926 11.4587C101.998 11.3546 102.09 11.266 102.196 11.1982Z" fill="#FF8B7B"/>
<path d="M94.8798 20.7966C98.0242 20.3234 103.149 23.2506 103.149 23.2506L102.028 30.2233C102.028 30.2233 99.645 30.0418 96.5168 28.4631C95.567 27.9769 91.1616 21.3607 94.8798 20.7966Z" fill="#407BFF"/>
<path d="M95.2428 20.761C91.7743 21.0851 86.4645 22.317 82.9667 23.7303C82.0584 24.0929 81.2892 24.7357 80.771 25.5652C80.2528 26.3947 80.0124 27.3678 80.0849 28.3432C80.4415 32.9917 83.0802 40.4118 86.4385 54.312C88.1825 54.6718 93.1422 54.111 97.0581 53.4075C97.4828 53.333 98.4261 52.2146 98.4261 52.2146C98.4261 52.2146 99.4602 52.9343 99.9983 52.8111C102.592 52.2211 104.611 51.5468 105.039 50.9828C103.716 47.8254 102.601 38.5576 101.561 33.0111C101.308 30.8101 100.643 26.771 99.5542 24.5375C98.5234 22.4239 97.5736 20.5211 95.2428 20.761Z" fill="#407BFF"/>
<path d="M86.7237 16.4204C87.1386 18.7965 87.5114 21.5843 86.312 23.3899C87.4109 24.7741 89.7903 25.7401 92.1081 26.1291C93.4209 24.2814 93.1065 22.6476 92.3771 21.7464C90.9735 20.9101 91.061 19.4578 91.0318 18.4562L86.7237 16.4204Z" fill="#FF8B7B"/>
<path d="M92.1079 26.1291C92.371 25.7079 92.5248 25.2277 92.5552 24.732C92.5552 24.0091 93.8519 24.3851 93.8519 24.3851C93.4293 25.106 92.8288 25.7065 92.1079 26.1291Z" fill="#263238"/>
<path d="M92.1079 26.1292C92.0155 25.877 91.8484 25.659 91.6289 25.5044C91.4093 25.3497 91.1478 25.2657 90.8793 25.2636C90.2458 25.231 89.613 25.3418 89.0283 25.5878C89.0283 25.5878 90.8728 26.2621 92.1079 26.1292Z" fill="#263238"/>
<path opacity="0.2" d="M87.7513 17.3184C87.7221 17.1693 87.6994 17.0169 87.6768 16.8678L91.0319 18.4594C90.9992 19.1553 91.0914 19.8513 91.3042 20.5146C89.7449 20.0576 88.0333 18.7512 87.7513 17.3184Z" fill="black"/>
<path d="M90.7175 7.33732C92.6625 7.01316 94.0208 9.28231 92.3383 12.4948C91.1843 11.9437 90.228 10.0927 90.228 10.0927L90.7175 7.33732Z" fill="#E0E0E0"/>
<path d="M84.824 13.3896C86.1596 16.2811 86.7949 18.0446 88.8825 18.9684C92.0237 20.3591 95.1454 17.5389 94.698 14.2972C94.2928 11.3797 92.1761 7.13968 88.821 7.12023C88.078 7.115 87.3458 7.29846 86.6931 7.65343C86.0404 8.0084 85.4885 8.52326 85.089 9.14976C84.6896 9.77626 84.4558 10.4939 84.4094 11.2355C84.3631 11.977 84.5057 12.7182 84.824 13.3896Z" fill="#FF8B7B"/>
<path d="M93.6023 14.9033C93.6023 14.9033 92.6071 14.9033 89.9976 15.4998C90.5324 16.2227 91.2942 16.7381 92.6233 16.4172C92.7931 16.3943 92.9559 16.335 93.1005 16.2432C93.2452 16.1514 93.3682 16.0294 93.4613 15.8856C93.5543 15.7418 93.615 15.5795 93.6394 15.4099C93.6637 15.2403 93.6511 15.0675 93.6023 14.9033Z" fill="#263238"/>
<path d="M91.8228 15.9375C92.338 15.7892 92.8867 15.8063 93.3918 15.9861C93.1917 16.2107 92.9225 16.3624 92.6267 16.4172C92.1129 16.5672 91.5646 16.5501 91.061 16.3686C91.259 16.143 91.5275 15.991 91.8228 15.9375Z" fill="#FF5652"/>
<path d="M93.4761 14.9066C93.4801 15.0077 93.4542 15.1076 93.4018 15.1941C93.3493 15.2806 93.2726 15.3497 93.1812 15.3929C92.4022 15.5693 91.6093 15.6778 90.8115 15.717C90.6831 15.7347 90.5522 15.721 90.4302 15.6769C90.3083 15.6329 90.1988 15.5599 90.1113 15.4642C91.2167 15.1909 92.3417 15.0044 93.4761 14.9066Z" fill="white"/>
<path opacity="0.2" d="M89.7937 15.0623C89.7937 15.0623 89.0546 15.1627 89.3204 15.7106C89.3431 15.4415 89.7937 15.0623 89.7937 15.0623Z" fill="black"/>
<path d="M86.4936 15.3345L87.813 15.0914C87.813 15.0914 86.9021 12.537 85.8064 11.8498C86.4547 11.2241 87.4272 9.9534 87.7319 9.07168C88 8.34784 88.0467 7.56062 87.866 6.81019C87.6853 6.05976 87.2854 5.38005 86.7173 4.85754C86.5907 5.52537 86.3178 6.15688 85.9182 6.70672C85.5186 7.25655 85.0022 7.71106 84.406 8.03759C83.132 8.72806 81.7738 10.4591 83.3752 11.1431C81.6506 12.1772 82.5226 14.362 86.4936 15.3345Z" fill="#E0E0E0"/>
<path d="M87.3106 9.78806C89.9039 9.8529 91.6965 7.19475 89.4501 3.98877C89.1615 5.80409 86.6558 6.90625 86.6558 6.90625L87.3106 9.78806Z" fill="#E0E0E0"/>
<path d="M89.6059 8.74431C91.2754 9.14627 92.5915 7.25316 91.3402 4.37134C91.042 5.79442 89.3628 6.31632 89.3628 6.31632L89.6059 8.74431Z" fill="#E0E0E0"/>
<path opacity="0.2" d="M88.7239 12.7412C88.2684 12.6669 87.802 12.7765 87.4272 13.046C87.875 13.0288 88.3153 12.9253 88.7239 12.7412Z" fill="black"/>
<path opacity="0.2" d="M88.7755 13.0394C88.5676 13.0499 88.3646 13.1054 88.1804 13.2023C87.9962 13.2991 87.8354 13.4349 87.709 13.6002C88.1004 13.4914 88.464 13.3002 88.7755 13.0394Z" fill="black"/>
<path opacity="0.2" d="M92.8633 11.1203C92.8633 11.1203 93.1032 10.673 93.3787 10.7281C93.2477 10.9052 93.0689 11.0413 92.8633 11.1203Z" fill="black"/>
<path opacity="0.2" d="M92.9219 11.3311C92.9219 11.3311 93.178 11.0069 93.4211 11.2079C93.2773 11.313 93.098 11.3572 92.9219 11.3311Z" fill="black"/>
<path d="M84.5486 16.0218C84.7701 16.348 85.054 16.6271 85.3839 16.843C85.7139 17.0588 86.0833 17.2072 86.4709 17.2795C87.5147 17.4708 87.9523 16.5145 87.5893 15.5777C87.2651 14.7349 86.325 13.6327 85.3201 13.8531C84.3152 14.0736 84.0073 15.2049 84.5486 16.0218Z" fill="#FF8B7B"/>
<path d="M89.2069 12.7412C89.3009 12.9811 89.5051 13.1269 89.664 13.0654C89.8228 13.0038 89.8714 12.7412 89.7774 12.5143C89.6834 12.2874 89.4792 12.1285 89.3203 12.1901C89.1615 12.2517 89.1129 12.4948 89.2069 12.7412Z" fill="#263238"/>
<path d="M92.2121 11.5417C92.3061 11.7816 92.5103 11.9275 92.6692 11.8659C92.828 11.8043 92.8767 11.5417 92.7826 11.3148C92.6886 11.0879 92.4844 10.9291 92.3288 10.9907C92.1732 11.0522 92.1181 11.2986 92.2121 11.5417Z" fill="#263238"/>
<path d="M91.2197 11.947C91.2197 11.947 92.3543 13.0784 93.2328 13.4771C92.9864 14.0541 92.1955 14.1935 92.1955 14.1935L91.2197 11.947Z" fill="#FF5652"/>
<path d="M88.0012 11.5483C87.9759 11.5565 87.9487 11.5565 87.9234 11.5483C87.904 11.5431 87.8859 11.5341 87.8701 11.5217C87.8543 11.5093 87.8412 11.4939 87.8315 11.4764C87.8219 11.4588 87.8158 11.4395 87.8138 11.4196C87.8117 11.3996 87.8137 11.3795 87.8196 11.3603C87.8792 11.1253 87.9942 10.9079 88.1549 10.7263C88.3156 10.5447 88.5174 10.4042 88.7435 10.3165C88.7622 10.3105 88.782 10.3082 88.8016 10.3098C88.8212 10.3115 88.8403 10.317 88.8578 10.326C88.8752 10.335 88.8907 10.3474 88.9034 10.3625C88.9161 10.3776 88.9256 10.395 88.9315 10.4138C88.9438 10.452 88.9405 10.4936 88.9223 10.5294C88.904 10.5652 88.8724 10.5924 88.8343 10.605C88.6564 10.6786 88.4984 10.7929 88.3728 10.9387C88.2473 11.0845 88.1577 11.2578 88.1114 11.4446C88.1031 11.4697 88.0887 11.4923 88.0694 11.5104C88.0502 11.5286 88.0267 11.5416 88.0012 11.5483Z" fill="#263238"/>
<path d="M92.6655 9.71355C92.6428 9.72471 92.6179 9.73051 92.5926 9.73051C92.5673 9.73051 92.5424 9.72471 92.5197 9.71355C92.355 9.61685 92.1693 9.56134 91.9786 9.55175C91.7878 9.54215 91.5976 9.57876 91.424 9.65844C91.3887 9.67695 91.3475 9.68086 91.3093 9.66935C91.2711 9.65783 91.239 9.6318 91.2198 9.59685C91.2011 9.56104 91.1971 9.51937 91.2086 9.48066C91.2201 9.44194 91.2462 9.40921 91.2814 9.38938C91.4995 9.28644 91.7392 9.23768 91.9802 9.24728C92.2212 9.25687 92.4563 9.32453 92.6655 9.44449C92.6831 9.45369 92.6988 9.46631 92.7114 9.48162C92.7241 9.49693 92.7336 9.51461 92.7393 9.53364C92.7451 9.55266 92.7469 9.57265 92.7448 9.59241C92.7427 9.61217 92.7367 9.63131 92.7271 9.64872C92.7118 9.67475 92.6907 9.69692 92.6655 9.71355Z" fill="#263238"/>
<path d="M84.4743 28.7744C84.1242 29.789 83.7352 30.8134 83.3721 31.8345L82.2505 34.8913L81.1321 37.9417C80.7723 38.9596 80.4028 39.971 80.0559 40.9791L80.0397 39.6825C80.378 40.7721 80.8018 41.8332 81.3072 42.8561C81.8259 43.9517 82.3834 45.0604 82.9669 46.1625C83.5504 47.2647 84.1436 48.3701 84.7433 49.4755L86.5522 52.8014C86.6977 53.0637 86.7408 53.3706 86.6732 53.6628C86.6056 53.955 86.4321 54.2118 86.1862 54.3835C85.9403 54.5553 85.6394 54.6298 85.3418 54.5926C85.0442 54.5554 84.7709 54.4093 84.5748 54.1824C83.7157 53.2099 82.915 52.2082 82.1241 51.1903C81.3331 50.1724 80.5713 49.1319 79.829 48.0719C79.0867 47.0118 78.3703 45.9194 77.6992 44.7751C76.9672 43.5872 76.3496 42.3324 75.8548 41.0278C75.7239 40.6669 75.7047 40.2749 75.7996 39.9029L75.8418 39.7408C76.1173 38.6484 76.4026 37.5689 76.7203 36.4992C77.0379 35.4295 77.3686 34.3694 77.6928 33.3159C78.0169 32.2624 78.3865 31.2121 78.756 30.1715C79.1256 29.131 79.4984 28.0936 79.9165 27.0563C80.1418 26.451 80.5982 25.9601 81.1855 25.6914C81.7728 25.4227 82.4427 25.3982 83.048 25.6235C83.6532 25.8487 84.1442 26.3052 84.4129 26.8925C84.6816 27.4797 84.706 28.1497 84.4808 28.7549L84.4743 28.7744Z" fill="#FF8B7B"/>
<path d="M82.7785 23.8146C79.2938 25.0594 77.3877 31.8669 77.3877 31.8669L82.9406 36.8136C82.9406 36.8136 85.2292 35.1733 85.696 31.6983C86.0526 29.0175 86.3184 22.5374 82.7785 23.8146Z" fill="#407BFF"/>
<path d="M85.4851 51.2714L88.3442 52.8176L85.605 55.5925C85.605 55.5925 83.1835 53.8776 83.887 52.4448L85.4851 51.2714Z" fill="#FF8B7B"/>
<path d="M89.3366 56.0463L88.2118 56.8567C87.9947 57.0129 87.7292 57.087 87.4626 57.0656C87.196 57.0442 86.9457 56.9288 86.7563 56.74L85.6055 55.5925L88.3447 52.8176L89.5797 54.4547C89.6696 54.5746 89.7347 54.7113 89.7712 54.8567C89.8076 55.0021 89.8148 55.1533 89.7921 55.3015C89.7695 55.4497 89.7176 55.5919 89.6393 55.7197C89.5611 55.8476 89.4582 55.9586 89.3366 56.0463Z" fill="#FF8B7B"/>
<path d="M86.8078 21.9896C86.9569 22.7125 87.6182 25.1275 90.8793 25.2637C89.7545 25.63 89.4887 27.7727 89.4887 27.7727C89.4887 27.7727 86.1336 25.6592 85.8062 23.014C85.9034 22.317 86.8078 21.9896 86.8078 21.9896Z" fill="white"/>
<path d="M91.4663 20.7253C91.6122 21.432 92.7111 22.6152 92.5555 24.732C93.6868 24.3851 95.1164 25.3414 95.1164 25.3414C94.7827 23.7159 93.996 22.2178 92.8473 21.0203C92.414 20.8224 91.9426 20.7217 91.4663 20.7253Z" fill="white"/>
</svg>
