<svg width="61" height="61" viewBox="0 0 61 61" fill="none" xmlns="http://www.w3.org/2000/svg">
<path d="M21.125 28.625C22.1196 28.625 23.0734 28.2299 23.7766 27.5266C24.4799 26.8234 24.875 25.8696 24.875 24.875C24.875 23.8804 24.4799 22.9266 23.7766 22.2234C23.0734 21.5201 22.1196 21.125 21.125 21.125C20.1304 21.125 19.1766 21.5201 18.4734 22.2234C17.7701 22.9266 17.375 23.8804 17.375 24.875C17.375 25.8696 17.7701 26.8234 18.4734 27.5266C19.1766 28.2299 20.1304 28.625 21.125 28.625ZM43.625 24.875C43.625 25.8696 43.2299 26.8234 42.5266 27.5266C41.8234 28.2299 40.8696 28.625 39.875 28.625C38.8804 28.625 37.9266 28.2299 37.2234 27.5266C36.5201 26.8234 36.125 25.8696 36.125 24.875C36.125 23.8804 36.5201 22.9266 37.2234 22.2234C37.9266 21.5201 38.8804 21.125 39.875 21.125C40.8696 21.125 41.8234 21.5201 42.5266 22.2234C43.2299 22.9266 43.625 23.8804 43.625 24.875ZM43.8575 43.2125C43.4713 43.5212 42.9787 43.6648 42.4871 43.6122C41.9955 43.5595 41.5446 43.3148 41.2325 42.9312L41.2213 42.92C41.0588 42.7402 40.8873 42.5687 40.7075 42.4062C40.1228 41.88 39.4858 41.4151 38.8063 41.0188C37.0775 40.0063 34.355 38.9375 30.5075 38.9375C26.66 38.9375 23.9337 40.0025 22.1975 41.0225C21.517 41.419 20.8787 41.8839 20.2925 42.41C20.1114 42.5724 19.9387 42.7439 19.775 42.9237L19.7638 42.935C19.6086 43.1263 19.4173 43.2852 19.2008 43.4026C18.9843 43.52 18.7467 43.5936 18.5018 43.6192C18.2568 43.6448 18.0092 43.6219 17.7731 43.5518C17.5369 43.4817 17.3169 43.3657 17.1256 43.2106C16.9343 43.0555 16.7754 42.8642 16.658 42.6477C16.5406 42.4312 16.467 42.1936 16.4414 41.9486C16.4158 41.7037 16.4388 41.4561 16.5089 41.2199C16.579 40.9838 16.6949 40.7638 16.85 40.5725L18.3125 41.75L16.85 40.5763V40.5725L16.8575 40.5688L16.865 40.5612L16.8837 40.5387L16.9362 40.4713L17.12 40.2687C17.27 40.1075 17.4875 39.8863 17.7725 39.6313C18.3425 39.1138 19.1788 38.4463 20.3 37.79C22.55 36.4663 25.925 35.1875 30.5075 35.1875C35.0863 35.1875 38.4575 36.4625 40.7075 37.79C41.8325 38.45 42.665 39.1138 43.2313 39.6275C43.5239 39.8947 43.8019 40.1776 44.0637 40.475L44.12 40.5387L44.1388 40.5612L44.1462 40.5725C44.1462 40.5725 44.15 40.58 42.6875 41.75L44.15 40.58C44.4598 40.9681 44.6029 41.4632 44.5481 41.9567C44.4933 42.4503 44.2449 42.9019 43.8575 43.2125ZM30.5 0.5C22.5435 0.5 14.9129 3.66071 9.2868 9.2868C3.66071 14.9129 0.5 22.5435 0.5 30.5C0.5 38.4565 3.66071 46.0871 9.2868 51.7132C14.9129 57.3393 22.5435 60.5 30.5 60.5C38.4565 60.5 46.0871 57.3393 51.7132 51.7132C57.3393 46.0871 60.5 38.4565 60.5 30.5C60.5 22.5435 57.3393 14.9129 51.7132 9.2868C46.0871 3.66071 38.4565 0.5 30.5 0.5ZM4.25 30.5C4.25 27.0528 4.92898 23.6394 6.24816 20.4546C7.56735 17.2698 9.50091 14.376 11.9384 11.9384C14.376 9.50091 17.2698 7.56735 20.4546 6.24816C23.6394 4.92898 27.0528 4.25 30.5 4.25C33.9472 4.25 37.3606 4.92898 40.5454 6.24816C43.7302 7.56735 46.624 9.50091 49.0616 11.9384C51.4991 14.376 53.4327 17.2698 54.7518 20.4546C56.071 23.6394 56.75 27.0528 56.75 30.5C56.75 37.4619 53.9844 44.1387 49.0616 49.0616C44.1387 53.9844 37.4619 56.75 30.5 56.75C23.5381 56.75 16.8613 53.9844 11.9384 49.0616C7.01562 44.1387 4.25 37.4619 4.25 30.5Z" fill="black"/>
</svg>
